<svg id="组_33983" data-name="组 33983" xmlns="http://www.w3.org/2000/svg" width="24" height="24" viewBox="0 0 24 24">
  <path id="联合_7" data-name="联合 7" d="M10.292,11.707l-4.3-4.292L1.706,11.707A.983.983,0,0,1,1,12a1,1,0,0,1-.708-1.706L4.579,6,.294,1.708A.992.992,0,0,1,0,1.029V.97A.992.992,0,0,1,.294.292a1.006,1.006,0,0,1,1.416,0L5.994,4.586,10.3.292a1,1,0,0,1,1.412,1.416L7.408,6l4.3,4.292a1,1,0,0,1,.3.681v.057a1,1,0,0,1-1.709.678Z" transform="translate(6 6)" fill="#9a9a9a"/>
  <rect id="矩形_8839" data-name="矩形 8839" width="24" height="24" fill="none"/>
</svg>
